HIERARCHY
ROOT Hips
{
	OFFSET -0.001795 -0.223333 0.028219
	CHANNELS 6 Xposition Yposition Zposition Zrotation Yrotation Xrotation 
	JOINT LeftUpLeg
	{
		OFFSET 0.069520 -0.091406 -0.006815
		CHANNELS 3 Zrotation Yrotation Xrotation
		JOINT LeftLeg
		{
			OFFSET 0.034277 -0.375199 -0.004496
			CHANNELS 3 Zrotation Yrotation Xrotation
			JOINT LeftFoot
			{
				OFFSET -0.013596 -0.397961 -0.043693
				CHANNELS 3 Zrotation Yrotation Xrotation
				JOINT LeftToe
				{
					OFFSET 0.026358 -0.055791 0.119288
					CHANNELS 3 Zrotation Yrotation Xrotation
					End Site
					{
						OFFSET 0.000000 0.000000 0.000000
					}
				}
			}
		}
	}
	JOINT RightUpLeg
	{
		OFFSET -0.067670 -0.090522 -0.004320
		CHANNELS 3 Zrotation Yrotation Xrotation
		JOINT RightLeg
		{
			OFFSET -0.038290 -0.382569 -0.008850
			CHANNELS 3 Zrotation Yrotation Xrotation
			JOINT RightFoot
			{
				OFFSET 0.015774 -0.398415 -0.042312
				CHANNELS 3 Zrotation Yrotation Xrotation
				JOINT RightToe
				{
					OFFSET -0.025372 -0.048144 0.123348
					CHANNELS 3 Zrotation Yrotation Xrotation
					End Site
					{
						OFFSET 0.000000 0.000000 0.000000
					}
				}
			}
		}
	}
	JOINT Spine
	{
		OFFSET -0.002533 0.108963 -0.026696
		CHANNELS 3 Zrotation Yrotation Xrotation
		JOINT Spine1
		{
			OFFSET 0.005487 0.135180 0.001092
			CHANNELS 3 Zrotation Yrotation Xrotation
			JOINT Spine2
			{
				OFFSET 0.001457 0.052922 0.025425
				CHANNELS 3 Zrotation Yrotation Xrotation
				JOINT Neck
				{
					OFFSET -0.002778 0.213870 -0.042857
					CHANNELS 3 Zrotation Yrotation Xrotation
					JOINT Head
					{
						OFFSET 0.005152 0.064970 0.051349
						CHANNELS 3 Zrotation Yrotation Xrotation
						End Site
						{
							OFFSET 0.000000 0.000000 0.000000
						}
					}
				}
				JOINT LeftShoulder
				{
					OFFSET 0.078845 0.121749 -0.034090
					CHANNELS 3 Zrotation Yrotation Xrotation
					JOINT LeftArm
					{
						OFFSET 0.090977 0.030469 -0.008868
						CHANNELS 3 Zrotation Yrotation Xrotation
						JOINT LeftForeArm
						{
							OFFSET 0.259612 -0.012772 -0.027456
							CHANNELS 3 Zrotation Yrotation Xrotation
							JOINT LeftHand
							{
								OFFSET 0.249234 0.008986 -0.001171
								CHANNELS 3 Zrotation Yrotation Xrotation
								End Site
								{
									OFFSET 0.000000 0.000000 0.000000
								}
							}
						}
					}
				}
				JOINT RightShoulder
				{
					OFFSET -0.081759 0.118833 -0.038615
					CHANNELS 3 Zrotation Yrotation Xrotation
					JOINT RightArm
					{
						OFFSET -0.096012 0.032551 -0.009143
						CHANNELS 3 Zrotation Yrotation Xrotation
						JOINT RightForeArm
						{
							OFFSET -0.253742 -0.013329 -0.021401
							CHANNELS 3 Zrotation Yrotation Xrotation
							JOINT RightHand
							{
								OFFSET -0.255298 0.007772 -0.005559
								CHANNELS 3 Zrotation Yrotation Xrotation
								End Site
								{
									OFFSET 0.000000 0.000000 0.000000
								}
							}
						}
					}
				}
			}
		}
	}
}
MOTION
Frames: 13
Frame Time: 0.050000
0.000000 0.942771 0.000000 -6.943510 -20.055489 9.122547 11.393340 1.115051 -17.420920 -2.339431 0.530200 8.771417 8.900393 16.317091 17.687347 0.000000 0.000000 0.000000 -4.517852 1.206588 -11.904395 4.258220 -0.077504 6.999139 -4.576735 -15.890806 13.171306 0.000000 0.000000 0.000000 -10.979411 3.407027 26.153374 0.648611 -0.081229 -20.436645 -2.712091 7.938046 25.422220 -6.041559 5.023601 -16.307484 0.000000 0.000000 0.000000 -23.167600 -21.037467 12.294272 -45.498694 -41.610095 8.336206 0.516166 -43.208370 2.545658 0.000000 0.000000 0.000000 2.415164 23.162968 8.361640 33.789827 34.672430 3.869062 -27.823416 77.246566 -18.755792 0.000000 0.000000 0.000000 
-0.001038 0.942554 -0.000110 -6.956382 -21.446626 9.184113 12.339506 1.396617 -17.137344 -3.943162 0.949997 8.893717 9.512795 17.029755 18.094598 0.000000 0.000000 0.000000 -4.193913 1.204807 -11.723164 2.860233 0.047429 6.024494 -3.056010 -13.654798 13.441657 0.000000 0.000000 0.000000 -11.063833 3.485619 25.778742 0.239050 0.035924 -21.168910 -3.133643 7.140692 26.776552 -7.510815 5.838464 -16.754238 0.000000 0.000000 0.000000 -24.015375 -18.916825 11.833519 -44.919950 -41.067335 7.628105 2.230982 -49.515949 2.626620 0.000000 0.000000 0.000000 -1.033888 22.679518 7.590922 36.303941 38.892758 5.308197 -17.369249 76.162594 -10.464147 0.000000 0.000000 0.000000 
-0.001600 0.942481 -0.000180 -6.751103 -19.133209 9.260291 12.414991 1.351548 -18.368645 -4.224510 0.996152 9.647500 8.296954 15.586607 17.564523 0.000000 0.000000 0.000000 -3.782884 1.148251 -11.308600 1.747741 0.117082 5.545874 -3.455003 -14.287156 14.108046 0.000000 0.000000 0.000000 -9.892210 2.971407 26.117926 -0.626281 0.240140 -19.828257 -2.468382 6.305717 24.066277 -6.087628 4.984327 -12.651033 0.000000 0.000000 0.000000 -26.494281 -19.729784 12.536492 -43.374214 -39.753383 6.918215 1.411384 -48.405906 2.674409 0.000000 0.000000 0.000000 -0.196607 23.610749 8.076552 34.992799 36.980213 4.788427 -12.736400 76.913244 -6.976519 0.000000 0.000000 0.000000 
-0.002131 0.942701 -0.000357 -6.916787 -19.613923 9.218586 12.706993 1.486095 -18.743068 -4.383456 1.111507 10.733915 8.452556 15.757172 17.814282 0.000000 0.000000 0.000000 -4.395368 1.179726 -11.658156 2.512692 0.051635 5.771909 -2.584275 -13.190034 14.969436 0.000000 0.000000 0.000000 -10.104180 3.035303 25.894435 -0.611336 0.215734 -19.566550 -2.968930 6.180101 24.377529 -5.751533 4.717192 -12.555778 0.000000 0.000000 0.000000 -24.734173 -18.986980 11.774849 -45.679814 -41.576583 8.417106 3.591717 -47.101794 1.681277 0.000000 0.000000 0.000000 -1.361479 22.986159 7.678732 34.865564 38.543484 5.101953 -5.499673 77.195255 -1.379552 0.000000 0.000000 0.000000 
-0.002719 0.942416 -0.000349 -6.798464 -19.821313 8.789453 12.454297 1.449832 -18.702728 -4.089500 1.092275 11.520487 8.521520 15.837089 17.798803 0.000000 0.000000 0.000000 -4.306192 1.180709 -11.686810 2.143371 0.118815 6.333650 -2.526372 -13.178769 15.125025 0.000000 0.000000 0.000000 -10.137989 3.082106 26.086252 -0.960945 0.291924 -19.185122 -2.338947 6.489606 23.849995 -4.813715 4.042208 -12.380172 0.000000 0.000000 0.000000 -23.112617 -18.976056 11.325863 -46.894145 -41.376222 8.855377 6.494782 -47.938775 0.447881 0.000000 0.000000 0.000000 -1.116500 23.041879 7.730985 34.499132 38.712639 5.147153 0.748048 76.972263 3.571542 0.000000 0.000000 0.000000 
-0.003125 0.942345 -0.000271 -6.748232 -19.229757 9.032669 12.578853 1.460446 -19.130018 -4.323301 1.130539 11.507586 8.229498 15.494825 17.704874 0.000000 0.000000 0.000000 -4.487128 1.184032 -11.784415 2.580794 0.078000 6.616847 -2.847269 -13.371182 14.363638 0.000000 0.000000 0.000000 -10.037710 3.020952 26.135962 -0.658246 0.250495 -19.954335 -2.126868 6.408443 24.234481 -4.097707 3.533306 -12.455511 0.000000 0.000000 0.000000 -22.938369 -19.416783 11.505806 -46.283400 -41.264713 8.609056 8.240402 -47.475498 -0.357608 0.000000 0.000000 0.000000 -1.964736 23.048508 7.622919 34.845914 38.211658 5.080966 7.945154 78.111080 9.537998 0.000000 0.000000 0.000000 
-0.003369 0.942831 -0.000032 -6.487024 -18.828647 9.099261 12.384366 1.403219 -19.379254 -4.415698 1.139097 11.471532 8.011060 15.220839 17.852510 0.000000 0.000000 0.000000 -4.448756 1.210900 -12.100565 2.156482 0.139961 6.974048 -3.103935 -13.823449 14.585266 0.000000 0.000000 0.000000 -9.728264 2.875929 25.979390 -0.731097 0.268477 -19.657683 -2.194257 6.372764 23.882566 -3.691425 3.243427 -12.884910 0.000000 0.000000 0.000000 -23.062635 -19.307165 11.403965 -46.421394 -41.268710 8.676938 8.330675 -47.367441 -0.400584 0.000000 0.000000 0.000000 -1.783783 23.081835 7.671131 34.176866 37.455688 4.755217 14.397775 77.861949 14.684538 0.000000 0.000000 0.000000 
-0.003525 0.943435 0.000200 -6.310408 -18.566028 9.250507 12.211636 1.351957 -19.586174 -4.413124 1.119327 11.324667 7.870175 15.044553 18.048537 0.000000 0.000000 0.000000 -4.351434 1.235034 -12.356971 1.866832 0.182042 7.169871 -3.413294 -14.317784 14.649385 0.000000 0.000000 0.000000 -9.794711 2.893272 26.031987 -0.589165 0.240340 -19.636103 -2.016357 6.379625 23.655981 -3.486456 3.108486 -12.817312 0.000000 0.000000 0.000000 -23.153669 -19.574623 11.523965 -46.271350 -41.099701 8.580351 9.157888 -47.986364 -0.769837 0.000000 0.000000 0.000000 -1.990016 22.814850 7.571217 33.851436 36.576106 4.471041 15.218563 76.589576 14.997654 0.000000 0.000000 0.000000 
-0.003678 0.943868 0.000351 -6.199843 -18.571433 9.197032 12.160779 1.312581 -19.284113 -4.516736 1.117262 10.846348 7.867464 15.036975 18.170017 0.000000 0.000000 0.000000 -4.278201 1.228246 -12.282265 1.796486 0.194855 7.247918 -3.675752 -14.658801 14.378225 0.000000 0.000000 0.000000 -9.660968 2.886061 26.283653 -0.765245 0.288412 -19.770716 -2.114703 6.474013 23.540159 -3.201680 2.916553 -12.907568 0.000000 0.000000 0.000000 -22.922345 -19.772570 11.553547 -46.569714 -41.474803 8.864298 9.744133 -48.202474 -1.025830 0.000000 0.000000 0.000000 -1.863105 22.687616 7.552981 33.002408 35.997432 4.142784 11.202651 75.277501 11.511459 0.000000 0.000000 0.000000 
-0.004015 0.943981 0.000374 -6.081343 -18.498802 8.980587 12.172036 1.319237 -19.408416 -4.699090 1.193168 11.372695 7.775989 14.927702 18.246593 0.000000 0.000000 0.000000 -4.154232 1.204188 -12.051751 1.615382 0.231054 7.517264 -3.878892 -14.795513 13.768852 0.000000 0.000000 0.000000 -9.649223 2.915785 26.604597 -1.031844 0.357963 -19.668078 -1.935100 6.709363 23.417932 -2.983339 2.802911 -13.155827 0.000000 0.000000 0.000000 -22.915463 -19.876333 11.498593 -46.582305 -41.887232 9.077007 10.238644 -48.738130 -1.275139 0.000000 0.000000 0.000000 -2.274090 22.615336 7.474786 32.613559 35.521345 3.977459 7.625908 74.513377 8.694083 0.000000 0.000000 0.000000 
-0.004589 0.944242 0.000268 -6.103376 -18.324798 8.968128 12.335419 1.344136 -19.432128 -4.867752 1.231017 11.379231 7.657443 14.783385 18.310624 0.000000 0.000000 0.000000 -4.154358 1.185418 -11.877205 1.702167 0.204131 7.265762 -3.874718 -14.806826 13.914692 0.000000 0.000000 0.000000 -9.646895 2.950027 26.959311 -1.125826 0.387264 -19.652195 -1.907900 6.772825 23.184970 -2.960126 2.807379 -12.910648 0.000000 0.000000 0.000000 -22.612552 -20.131155 11.513528 -46.708049 -42.274355 9.340569 10.680470 -48.563538 -1.498072 0.000000 0.000000 0.000000 -2.415000 22.785813 7.517894 32.244072 35.423784 3.907491 6.721050 73.707254 7.925960 0.000000 0.000000 0.000000 
-0.005292 0.944156 0.000095 -6.119276 -18.011358 9.009827 12.470584 1.350519 -19.473513 -4.979075 1.239851 11.244873 7.500872 14.602948 18.237074 0.000000 0.000000 0.000000 -4.228737 1.174486 -11.804125 1.832987 0.174485 7.076210 -3.833990 -14.759202 14.110333 0.000000 0.000000 0.000000 -9.628966 2.950118 27.169841 -1.083882 0.386547 -19.692392 -1.710288 6.958193 23.338806 -3.015489 2.892777 -12.507413 0.000000 0.000000 0.000000 -22.857959 -20.464690 11.646556 -46.145591 -42.685772 9.342338 10.245527 -47.997742 -1.355075 0.000000 0.000000 0.000000 -2.341434 23.030993 7.615029 31.572216 34.750143 3.620033 6.288776 73.653252 7.664768 0.000000 0.000000 0.000000 
-0.005892 0.944310 0.000017 -6.180949 -17.879257 9.108667 12.677468 1.412714 -19.776442 -5.147653 1.300151 11.575427 7.397350 14.474343 18.324481 0.000000 0.000000 0.000000 -4.039707 1.177500 -11.809690 1.817569 0.164645 6.875454 -4.060295 -15.174391 14.333878 0.000000 0.000000 0.000000 -9.799994 3.031048 27.399823 -0.878573 0.332280 -19.439434 -1.631948 7.093721 23.235858 -3.151650 3.017755 -12.353164 0.000000 0.000000 0.000000 -23.113903 -20.838451 11.834129 -45.105004 -43.006898 9.173913 9.718865 -46.587317 -1.180770 0.000000 0.000000 0.000000 -2.395839 23.208670 7.675643 31.273182 34.382508 3.501075 7.177416 74.039223 8.436496 0.000000 0.000000 0.000000 
